<svg width="1200" height="900" viewBox="0 0 1200 900" fill="none" xmlns="http://www.w3.org/2000/svg">
  <rect width="1200" height="900" fill="#F1F5F9"/>
  <rect x="120" y="180" width="960" height="620" rx="34" fill="white"/>
  <rect x="180" y="240" width="420" height="500" rx="24" fill="#E0F2FE"/>
  <rect x="630" y="240" width="390" height="220" rx="24" fill="#DCFCE7"/>
  <rect x="630" y="490" width="390" height="250" rx="24" fill="#EDE9FE"/>
  <rect x="230" y="300" width="320" height="42" rx="21" fill="#0284C7"/>
  <rect x="230" y="360" width="260" height="24" rx="12" fill="#7DD3FC"/>
  <rect x="230" y="400" width="290" height="24" rx="12" fill="#BAE6FD"/>
  <rect x="230" y="452" width="140" height="140" rx="24" fill="#0369A1"/>
  <rect x="390" y="452" width="140" height="140" rx="24" fill="#0EA5E9"/>
  <rect x="690" y="295" width="270" height="20" rx="10" fill="#15803D"/>
  <rect x="690" y="331" width="220" height="16" rx="8" fill="#4ADE80"/>
  <rect x="690" y="362" width="250" height="16" rx="8" fill="#86EFAC"/>
  <circle cx="745" cy="570" r="54" fill="#7C3AED"/>
  <rect x="810" y="538" width="170" height="20" rx="10" fill="#8B5CF6"/>
  <rect x="810" y="572" width="150" height="16" rx="8" fill="#C4B5FD"/>
  <rect x="810" y="602" width="128" height="16" rx="8" fill="#DDD6FE"/>
  <rect x="810" y="650" width="182" height="16" rx="8" fill="#8B5CF6"/>
  <rect x="180" y="120" width="220" height="42" rx="21" fill="#0F172A"/>
  <rect x="210" y="132" width="78" height="18" rx="9" fill="#E2E8F0"/>
  <rect x="305" y="132" width="66" height="18" rx="9" fill="#7DD3FC"/>
</svg>
