<svg width="1200" height="800" viewBox="0 0 1200 800" fill="none" xmlns="http://www.w3.org/2000/svg">
  <rect width="1200" height="800" fill="#F8F7FF"/>
  <circle cx="190" cy="110" r="140" fill="#E4E1FF"/>
  <circle cx="1010" cy="120" r="150" fill="#E7F0FF"/>
  <rect x="120" y="160" width="960" height="560" rx="34" fill="white"/>

  <rect x="180" y="220" width="430" height="420" rx="24" fill="#F3F2FF"/>
  <rect x="640" y="220" width="380" height="180" rx="22" fill="#EEF6FF"/>
  <rect x="640" y="430" width="380" height="210" rx="22" fill="#EFFAF1"/>

  <circle cx="360" cy="322" r="68" fill="#6C3D29"/>
  <rect x="300" y="404" width="120" height="174" rx="52" fill="#4F46E5"/>
  <rect x="276" y="382" width="168" height="34" rx="17" fill="#6366F1"/>
  <rect x="338" y="448" width="44" height="120" rx="8" fill="white"/>

  <rect x="460" y="470" width="122" height="88" rx="14" fill="white"/>
  <polyline points="484,528 506,502 526,516 558,486" stroke="#2563EB" stroke-width="10" stroke-linecap="round" stroke-linejoin="round"/>
  <circle cx="484" cy="528" r="6" fill="#2563EB"/>
  <circle cx="506" cy="502" r="6" fill="#2563EB"/>
  <circle cx="526" cy="516" r="6" fill="#2563EB"/>
  <circle cx="558" cy="486" r="6" fill="#2563EB"/>

  <rect x="676" y="262" width="302" height="20" rx="10" fill="#1D4ED8"/>
  <rect x="676" y="296" width="220" height="14" rx="7" fill="#93C5FD"/>
  <rect x="676" y="324" width="262" height="14" rx="7" fill="#BFDBFE"/>

  <rect x="678" y="470" width="110" height="110" rx="18" fill="#16A34A"/>
  <rect x="806" y="474" width="170" height="18" rx="9" fill="#15803D"/>
  <rect x="806" y="506" width="132" height="14" rx="7" fill="#86EFAC"/>
  <rect x="806" y="532" width="150" height="14" rx="7" fill="#BBF7D0"/>

  <rect x="232" y="598" width="740" height="28" rx="14" fill="#E1DFFF"/>
</svg>
