<svg width="1200" height="800" viewBox="0 0 1200 800" fill="none" xmlns="http://www.w3.org/2000/svg">
  <rect width="1200" height="800" fill="#EEF6FF"/>
  <circle cx="180" cy="120" r="140" fill="#C7E4FF"/>
  <circle cx="1020" cy="140" r="160" fill="#DDEBFF"/>
  <rect x="110" y="160" width="980" height="560" rx="34" fill="white"/>

  <rect x="170" y="220" width="420" height="420" rx="24" fill="#EAF7FF"/>
  <rect x="620" y="220" width="410" height="420" rx="24" fill="#F3F9FF"/>

  <circle cx="360" cy="330" r="74" fill="#6F3C27"/>
  <rect x="300" y="410" width="120" height="170" rx="54" fill="#1E3A8A"/>
  <rect x="276" y="388" width="168" height="34" rx="17" fill="#2563EB"/>
  <rect x="320" y="448" width="80" height="120" rx="12" fill="white"/>
  <rect x="350" y="448" width="18" height="120" rx="9" fill="#BFD9FF"/>
  <circle cx="318" cy="332" r="12" fill="white"/>
  <circle cx="401" cy="332" r="12" fill="white"/>

  <circle cx="790" cy="345" r="70" fill="#8A5538"/>
  <rect x="730" y="420" width="120" height="162" rx="52" fill="#16A34A"/>
  <rect x="706" y="398" width="168" height="34" rx="17" fill="#22C55E"/>
  <rect x="770" y="470" width="240" height="116" rx="16" fill="white"/>
  <rect x="794" y="494" width="192" height="16" rx="8" fill="#1D4ED8"/>
  <rect x="794" y="524" width="146" height="12" rx="6" fill="#93C5FD"/>
  <rect x="794" y="548" width="168" height="12" rx="6" fill="#BFDBFE"/>

  <rect x="240" y="600" width="760" height="30" rx="15" fill="#D9E8FF"/>
</svg>
