<svg width="1200" height="800" viewBox="0 0 1200 800" fill="none" xmlns="http://www.w3.org/2000/svg">
  <rect width="1200" height="800" fill="#EFF6FF"/>
  <circle cx="220" cy="120" r="160" fill="#BFDBFE"/>
  <circle cx="980" cy="120" r="160" fill="#C7D2FE"/>
  <rect x="130" y="170" width="940" height="500" rx="36" fill="white"/>
  <rect x="180" y="220" width="300" height="400" rx="24" fill="#E0F2FE"/>
  <rect x="510" y="220" width="300" height="400" rx="24" fill="#EDE9FE"/>
  <rect x="840" y="220" width="180" height="400" rx="24" fill="#DCFCE7"/>
  <circle cx="330" cy="330" r="58" fill="#0284C7"/>
  <rect x="280" y="412" width="100" height="160" rx="46" fill="#0369A1"/>
  <rect x="250" y="370" width="160" height="34" rx="17" fill="#38BDF8"/>
  <circle cx="660" cy="330" r="58" fill="#7C3AED"/>
  <rect x="610" y="412" width="100" height="160" rx="46" fill="#6D28D9"/>
  <rect x="580" y="370" width="160" height="34" rx="17" fill="#A78BFA"/>
  <circle cx="930" cy="340" r="44" fill="#16A34A"/>
  <rect x="890" y="402" width="80" height="150" rx="36" fill="#15803D"/>
  <rect x="864" y="370" width="132" height="30" rx="15" fill="#4ADE80"/>
  <path d="M460 370H520" stroke="#64748B" stroke-width="16" stroke-linecap="round"/>
  <path d="M790 370H850" stroke="#64748B" stroke-width="16" stroke-linecap="round"/>
  <circle cx="490" cy="370" r="14" fill="#0EA5E9"/>
  <circle cx="820" cy="370" r="14" fill="#8B5CF6"/>
</svg>
