<svg width="1200" height="800" viewBox="0 0 1200 800" fill="none" xmlns="http://www.w3.org/2000/svg">
  <rect width="1200" height="800" fill="#F8FAFC"/>
  <circle cx="240" cy="110" r="150" fill="#E0E7FF"/>
  <circle cx="970" cy="90" r="140" fill="#BAE6FD"/>
  <rect x="160" y="160" width="880" height="510" rx="36" fill="#0F172A"/>
  <rect x="205" y="205" width="790" height="380" rx="24" fill="#111827"/>
  <rect x="260" y="250" width="250" height="290" rx="18" fill="#0C4A6E"/>
  <rect x="540" y="250" width="190" height="120" rx="18" fill="#0369A1"/>
  <rect x="750" y="250" width="190" height="120" rx="18" fill="#1D4ED8"/>
  <rect x="540" y="390" width="400" height="150" rx="18" fill="#1E293B"/>
  <polyline points="290,425 340,380 390,410 460,320" stroke="#67E8F9" stroke-width="14" stroke-linecap="round" stroke-linejoin="round"/>
  <circle cx="290" cy="425" r="10" fill="#22D3EE"/>
  <circle cx="340" cy="380" r="10" fill="#22D3EE"/>
  <circle cx="390" cy="410" r="10" fill="#22D3EE"/>
  <circle cx="460" cy="320" r="10" fill="#22D3EE"/>
  <rect x="575" y="285" width="120" height="16" rx="8" fill="#7DD3FC"/>
  <rect x="575" y="315" width="92" height="12" rx="6" fill="#BAE6FD"/>
  <rect x="785" y="285" width="120" height="16" rx="8" fill="#93C5FD"/>
  <rect x="785" y="315" width="88" height="12" rx="6" fill="#BFDBFE"/>
  <rect x="580" y="430" width="320" height="16" rx="8" fill="#94A3B8"/>
  <rect x="580" y="460" width="270" height="12" rx="6" fill="#64748B"/>
  <rect x="580" y="486" width="300" height="12" rx="6" fill="#475569"/>
  <rect x="470" y="680" width="260" height="22" rx="11" fill="#334155"/>
</svg>
