<svg width="900" height="700" viewBox="0 0 900 700" fill="none" xmlns="http://www.w3.org/2000/svg">
  <rect width="900" height="700" fill="#4C1D95"/>
  <circle cx="150" cy="110" r="100" fill="#6D28D9"/>
  <circle cx="760" cy="120" r="120" fill="#7C3AED"/>
  <rect x="120" y="140" width="660" height="470" rx="28" fill="#F5F3FF"/>
  <rect x="180" y="210" width="300" height="330" rx="22" fill="#EDE9FE"/>
  <rect x="510" y="210" width="210" height="330" rx="22" fill="#DDD6FE"/>
  <path d="M330 248L390 278V340C390 398 351 438 330 448C309 438 270 398 270 340V278L330 248Z" fill="#7C3AED"/>
  <path d="M330 288V408" stroke="white" stroke-width="18" stroke-linecap="round"/>
  <path d="M290 348H370" stroke="white" stroke-width="18" stroke-linecap="round"/>
  <rect x="230" y="470" width="200" height="20" rx="10" fill="#8B5CF6"/>
  <rect x="230" y="504" width="160" height="16" rx="8" fill="#C4B5FD"/>
  <rect x="540" y="262" width="150" height="18" rx="9" fill="#6D28D9"/>
  <rect x="540" y="296" width="120" height="14" rx="7" fill="#A78BFA"/>
  <rect x="540" y="330" width="138" height="14" rx="7" fill="#C4B5FD"/>
  <rect x="540" y="390" width="150" height="18" rx="9" fill="#6D28D9"/>
  <rect x="540" y="424" width="130" height="14" rx="7" fill="#A78BFA"/>
  <rect x="540" y="458" width="118" height="14" rx="7" fill="#C4B5FD"/>
</svg>
